<svg width="224" height="72" viewBox="0 0 224 72" fill="none" xmlns="http://www.w3.org/2000/svg">
  <path fill-rule="evenodd" clip-rule="evenodd"
    d="M16 0C7.16344 0 0 7.16344 0 16V56C0 64.8366 7.16344 72 16 72H56C64.8366 72 72 64.8366 72 56V16C72 7.16344 64.8366 0 56 0H16ZM27.8995 29H36.1005C37.957 29 39.7375 28.2625 41.0503 26.9497L54.2929 13.7071C54.9229 13.0771 56 13.5233 56 14.4142V31.5147C56 33.106 55.3679 34.6321 54.2426 35.7574L49.0503 40.9497C47.7375 42.2625 45.957 43 44.1005 43H35.8995C34.043 43 32.2625 43.7375 30.9497 45.0503L17.7071 58.2929C17.0771 58.9229 16 58.4767 16 57.5858V40.4853C16 38.894 16.6321 37.3679 17.7574 36.2426L22.9497 31.0503C24.2625 29.7375 26.043 29 27.8995 29Z"
    fill="#EC6441" />
  <path fill-rule="evenodd" clip-rule="evenodd"
    d="M16 0C7.16344 0 0 7.16344 0 16V56C0 64.8366 7.16344 72 16 72H56C64.8366 72 72 64.8366 72 56V16C72 7.16344 64.8366 0 56 0H16ZM27.8995 29H36.1005C37.957 29 39.7375 28.2625 41.0503 26.9497L54.2929 13.7071C54.9229 13.0771 56 13.5233 56 14.4142V31.5147C56 33.106 55.3679 34.6321 54.2426 35.7574L49.0503 40.9497C47.7375 42.2625 45.957 43 44.1005 43H35.8995C34.043 43 32.2625 43.7375 30.9497 45.0503L17.7071 58.2929C17.0771 58.9229 16 58.4767 16 57.5858V40.4853C16 38.894 16.6321 37.3679 17.7574 36.2426L22.9497 31.0503C24.2625 29.7375 26.043 29 27.8995 29Z"
    fill="url(#paint0_linear_772_17)" fill-opacity="0.1" />
  <path
    d="M90.86 52V19.924H115.896V27.184H98.648L99.704 26.128V34.488L98.648 33.432H114.136V40.296H98.648L99.704 39.24V52H90.86ZM119.775 52V19.924H128.179V52H119.775ZM145.159 52.44C143.194 52.44 141.405 52.176 139.791 51.648C138.178 51.0907 136.785 50.284 135.611 49.228C134.467 48.1427 133.573 46.8373 132.927 45.312C132.311 43.7867 132.003 42.0413 132.003 40.076C132.003 37.5533 132.531 35.368 133.587 33.52C134.643 31.672 136.154 30.2493 138.119 29.252C140.085 28.2253 142.431 27.712 145.159 27.712C147.154 27.712 148.958 27.9907 150.571 28.548C152.185 29.076 153.563 29.8827 154.707 30.968C155.881 32.024 156.775 33.3147 157.391 34.84C158.037 36.3653 158.359 38.1107 158.359 40.076C158.359 42.5693 157.831 44.7547 156.775 46.632C155.719 48.48 154.209 49.9173 152.243 50.944C150.278 51.9413 147.917 52.44 145.159 52.44ZM145.159 45.84C146.157 45.84 147.007 45.6347 147.711 45.224C148.415 44.784 148.958 44.1387 149.339 43.288C149.721 42.4373 149.911 41.3667 149.911 40.076C149.911 39.108 149.794 38.2573 149.559 37.524C149.354 36.7907 149.046 36.1893 148.635 35.72C148.225 35.2507 147.726 34.8987 147.139 34.664C146.582 34.4 145.922 34.268 145.159 34.268C144.191 34.268 143.355 34.488 142.651 34.928C141.947 35.3387 141.405 35.9693 141.023 36.82C140.671 37.6707 140.495 38.756 140.495 40.076C140.495 41.044 140.598 41.8947 140.803 42.628C141.009 43.332 141.317 43.9333 141.727 44.432C142.138 44.9013 142.622 45.2533 143.179 45.488C143.766 45.7227 144.426 45.84 145.159 45.84ZM165.255 52L159.491 28.152H167.851L171.151 44.168H171.503L174.363 28.152H183.163L185.935 44.3H186.155L189.587 28.152H197.595L191.787 52H181.183L178.499 38.228H178.279L175.639 52H165.255ZM210.291 52.44C207.827 52.44 205.715 52.1173 203.955 51.472C202.224 50.7973 200.889 49.8587 199.951 48.656C199.012 47.424 198.513 46.0013 198.455 44.388H206.727C206.785 45.2973 207.137 45.9573 207.783 46.368C208.457 46.7787 209.367 46.984 210.511 46.984C211.596 46.984 212.403 46.8227 212.931 46.5C213.459 46.1773 213.723 45.7227 213.723 45.136C213.723 44.6373 213.591 44.2707 213.327 44.036C213.063 43.8013 212.623 43.6253 212.007 43.508C211.391 43.3613 210.555 43.2293 209.499 43.112C207.035 42.7893 205.04 42.364 203.515 41.836C202.019 41.2787 200.904 40.516 200.171 39.548C199.467 38.5507 199.115 37.26 199.115 35.676C199.115 34.092 199.569 32.6987 200.479 31.496C201.417 30.2933 202.737 29.3693 204.439 28.724C206.169 28.0493 208.193 27.712 210.511 27.712C212.652 27.712 214.529 28.02 216.143 28.636C217.756 29.252 219.032 30.132 219.971 31.276C220.909 32.42 221.437 33.784 221.555 35.368H213.415C213.385 34.8693 213.239 34.4587 212.975 34.136C212.74 33.8133 212.403 33.5787 211.963 33.432C211.523 33.256 210.995 33.168 210.379 33.168C209.469 33.168 208.751 33.3147 208.223 33.608C207.695 33.9013 207.431 34.3413 207.431 34.928C207.431 35.3973 207.577 35.764 207.871 36.028C208.193 36.2627 208.707 36.4533 209.411 36.6C210.144 36.7467 211.097 36.8787 212.271 36.996C214.06 37.2013 215.585 37.48 216.847 37.832C218.108 38.184 219.12 38.6533 219.883 39.24C220.675 39.8267 221.247 40.5453 221.599 41.396C221.951 42.2467 222.127 43.288 222.127 44.52C222.127 46.984 221.1 48.92 219.047 50.328C216.993 51.736 214.075 52.44 210.291 52.44Z"
    fill="#181818" />
  <defs>
    <linearGradient id="paint0_linear_772_17" x1="36" y1="4" x2="36" y2="68" gradientUnits="userSpaceOnUse">
      <stop stop-color="white" />
      <stop offset="0.0001" stop-color="white" />
      <stop offset="1" stop-color="white" stop-opacity="0" />
      <stop offset="1" stop-color="white" stop-opacity="0" />
    </linearGradient>
  </defs>
</svg>