<svg width="140" height="30" viewBox="0 0 140 30" fill="none" xmlns="http://www.w3.org/2000/svg">
<path d="M0.5 0.483592V29.4991H8.16839V18.8083H17.7021V11.7617H8.16839V7.53022H20.3618V0.483592H0.5Z" fill="black"/>
<path d="M124.783 29.4473C126.079 29.81 127.408 30 128.756 30H128.79C131.053 30 133.004 29.6546 134.628 28.9637C136.251 28.2729 137.512 27.2712 138.376 25.9413C139.256 24.6114 139.688 22.9879 139.688 21.0881C139.688 19.0155 139.067 17.1848 137.823 15.5613C136.579 13.9551 134.852 12.867 132.642 12.3143L128.255 11.1917C127.478 11.0017 126.89 10.7254 126.476 10.3454C126.061 9.96546 125.854 9.53368 125.854 9.03281C125.854 8.22107 126.096 7.61658 126.614 7.20207C127.132 6.78756 127.823 6.58031 128.79 6.58031C129.757 6.58031 130.517 6.85665 131.087 7.40933C131.657 7.962 132.003 8.51468 132.141 9.06736L139.723 6.87392C139.066 5.25043 138.22 3.92055 137.219 2.91883C136.2 1.9171 135.008 1.17444 133.609 0.708117C132.21 0.241796 130.604 0 128.773 0C125.353 0 122.693 0.794473 120.794 2.38342C118.911 3.97237 117.961 6.18307 117.961 9.03281C117.961 10.4836 118.237 11.7789 118.807 12.9361C119.377 14.0933 120.189 15.0777 121.26 15.8722C122.331 16.6667 123.609 17.2712 125.094 17.6511L129.446 18.7737C130.189 18.9637 130.742 19.2746 131.087 19.7064C131.433 20.1382 131.605 20.5872 131.605 21.0535C131.605 21.7789 131.294 22.3661 130.707 22.7979C130.103 23.247 129.429 23.4542 128.652 23.4197C127.685 23.3679 126.89 23.0915 126.286 22.6079C125.681 22.1244 125.25 21.5371 125.008 20.8463L117.374 22.9534C117.512 23.9033 117.927 24.7841 118.617 25.6304C119.308 26.4767 120.172 27.2366 121.243 27.8929C122.296 28.5492 123.488 29.0846 124.783 29.4473Z" fill="black"/>
<path d="M105.042 17.2366L109.516 0.483592H117.357L109.015 29.5164H101.053L96.7349 12.3661L92.4171 29.5164H84.4551L81.5017 19.2401C81.8126 17.9102 81.9853 16.5112 81.9853 15.0432C81.9853 11.7444 81.2254 8.77375 79.7228 6.21762C78.9111 4.80138 77.8921 3.57513 76.7176 2.50432L76.1477 0.483592H83.9888L88.5829 17.7029L92.9352 0.483592H100.569L105.042 17.2366Z" fill="black"/>
<path d="M39.4983 22.4525C39.7055 22.9188 39.9128 23.3851 40.1719 23.8169C40.7936 24.8705 41.5363 25.8031 42.3653 26.6839V29.4991H22.7625V0.483592H30.4309V22.4525H39.4983Z" fill="black"/>
<path fill-rule="evenodd" clip-rule="evenodd" d="M72.56 1.94C74.87 3.22 76.7 5 78.02 7.24C79.33 9.48 80 12.1 80 15.01C80 17.92 79.34 20.52 78.04 22.76C76.74 24.99 74.91 26.77 72.6 28.05C70.4 29.26 67.81 29.94 65 30H56C52.94 30 49.8 29.33 47.47 28.05C45.15 26.78 43.3 24.99 41.99 22.76C40.67 20.53 40 17.96 40 15.02C40 12.08 40.67 9.46 41.99 7.23C43.3 5 45.14 3.22 47.45 1.94C49.76 0.66 52.97 0 56 0H65C67.83 0.08 70.38 0.74 72.56 1.94ZM67.37 17.82L70.3 14.89C70.94 14.26 71.29 13.4 71.29 12.5V12.34C71.2 8.5 66.65 6.53 63.79 9.09L62.86 9.92C62.12 10.66 61.13 11 60.08 11H55.45C54.4 11 53.38 11.49 52.64 12.23L49.71 15.16C49.08 15.79 48.72 16.65 48.72 17.55C48.72 21.37 53.19 23.46 56.12 21L57.16 20.13C57.9 19.39 58.9 19 59.95 19H64.58C65.62 19 66.63 18.56 67.37 17.82Z" fill="black"/>
</svg>
